{
    "asset" : {
        "generator" : "Khronos glTF Blender I/O v3.3.32",
        "version" : "2.0"
    },
    "extensionsUsed" : [
        "KHR_materials_unlit",
        "KHR_materials_specular",
        "KHR_materials_ior",
        "KHR_lights_punctual"
    ],
    "extensionsRequired" : [
        "KHR_lights_punctual"
    ],
    "extensions" : {
        "KHR_lights_punctual" : {
            "lights" : [
                {
                    "color" : [
                        1,
                        1,
                        1
                    ],
                    "intensity" : 3,
                    "type" : "directional",
                    "name" : "Point"
                }
            ]
        }
    },
    "scene" : 0,
    "scenes" : [
        {
            "extras" : {
                "sid_settings" : {
                    "compositor_reset" : 1
                },
                "unit" : "1m",
                "env" : "envmap",
                "b_settings" : 0
            },
            "name" : "Scene",
            "nodes" : [
                0,
                1,
                2,
                3,
                4,
                5,
                6,
                7,
                8,
                9
            ]
        }
    ],
    "nodes" : [
        {
            "mesh" : 0,
            "name" : "envmap",
            "rotation" : [
                0,
                1,
                0,
                0
            ],
            "scale" : [
                0,
                0,
                0
            ],
            "translation" : [
                13.938520431518555,
                5.308450222015381,
                -2.4177451133728027
            ]
        },
        {
            "extras" : {
                "src" : "#scale=0.02,0.02,0.02&q=-sky"
            },
            "name" : "recursive",
            "rotation" : [
                0,
                -0.219959557056427,
                0,
                0.975508987903595
            ],
            "scale" : [
                0.20000000298023224,
                0.20000000298023224,
                0.20000000298023224
            ],
            "translation" : [
                5.48124885559082,
                -1.6115620136260986,
                1.5830535888671875
            ]
        },
        {
            "mesh" : 1,
            "name" : "sky",
            "scale" : [
                436.14495849609375,
                436.14495849609375,
                436.14495849609375
            ],
            "translation" : [
                0,
                -0.9690955877304077,
                0
            ]
        },
        {
            "mesh" : 2,
            "name" : "floor",
            "scale" : [
                12.03625774383545,
                12.03625774383545,
                12.03625774383545
            ],
            "translation" : [
                0,
                -0.030632078647613525,
                0
            ]
        },
        {
            "mesh" : 3,
            "name" : "art_triangle",
            "rotation" : [
                0,
                0,
                -1,
                0
            ],
            "scale" : [
                -11.857141494750977,
                -0.7047180533409119,
                -0.19354961812496185
            ],
            "translation" : [
                5.182623863220215e-05,
                1.5160478353500366,
                -8.448474884033203
            ]
        },
        {
            "extensions" : {
                "KHR_lights_punctual" : {
                    "light" : 0
                }
            },
            "name" : "Point",
            "rotation" : [
                -0.7071068286895752,
                0,
                0,
                0.7071068286895752
            ],
            "translation" : [
                0.0010889768600463867,
                7.4120612144470215,
                -1.132979393005371
            ]
        },
        {
            "mesh" : 4,
            "name" : "Plane",
            "rotation" : [
                0.6506903171539307,
                -0.2767712473869324,
                0.27677121758461,
                0.6506900787353516
            ],
            "scale" : [
                0.0390426330268383,
                1.440264105796814,
                2.1178646087646484
            ],
            "translation" : [
                -0.6212626099586487,
                4.867421627044678,
                5.809244632720947
            ]
        },
        {
            "mesh" : 5,
            "name" : "Text",
            "rotation" : [
                0.13807892799377441,
                0.6934942007064819,
                -0.6934942007064819,
                0.13807891309261322
            ],
            "scale" : [
                0.8725879192352295,
                0.8725879192352295,
                0.8725878596305847
            ],
            "translation" : [
                -0.9749155044555664,
                6.280083179473877,
                5.732975959777832
            ]
        },
        {
            "mesh" : 6,
            "name" : "Plane.001",
            "rotation" : [
                0.29979440569877625,
                0.6404086947441101,
                -0.6404087543487549,
                0.29979440569877625
            ],
            "scale" : [
                0.0390426442027092,
                1.440264105796814,
                2.1178646087646484
            ],
            "translation" : [
                6.903285503387451,
                6.454442024230957,
                -7.138602256774902
            ]
        },
        {
            "mesh" : 7,
            "name" : "Text.001",
            "rotation" : [
                0.688130259513855,
                -0.1627165973186493,
                0.16271661221981049,
                0.6881303191184998
            ],
            "scale" : [
                0.8725878596305847,
                0.8725878596305847,
                0.8725878596305847
            ],
            "translation" : [
                7.250604152679443,
                7.867103576660156,
                -7.037325859069824
            ]
        }
    ],
    "materials" : [
        {
            "doubleSided" : true,
            "extensions" : {
                "KHR_materials_unlit" : {}
            },
            "name" : "environmentMap",
            "pbrMetallicRoughness" : {
                "baseColorTexture" : {
                    "index" : 0,
                    "texCoord" : 0
                },
                "metallicFactor" : 0,
                "roughnessFactor" : 0.9
            }
        },
        {
            "doubleSided" : true,
            "emissiveFactor" : [
                1,
                1,
                1
            ],
            "emissiveTexture" : {
                "index" : 1
            },
            "extensions" : {
                "KHR_materials_specular" : {
                    "specularColorFactor" : [
                        0.7760806404086199,
                        0.7760806404086199,
                        0.7760806404086199
                    ]
                },
                "KHR_materials_ior" : {
                    "ior" : 1.4500000476837158
                }
            },
            "name" : "vaporgradient",
            "pbrMetallicRoughness" : {
                "baseColorTexture" : {
                    "index" : 2
                },
                "metallicFactor" : 0.8863636255264282,
                "roughnessFactor" : 0.0757732018828392
            }
        },
        {
            "doubleSided" : true,
            "extensions" : {
                "KHR_materials_specular" : {
                    "specularColorFactor" : [
                        0.1363636404275894,
                        0.1363636404275894,
                        0.1363636404275894
                    ]
                }
            },
            "name" : "text.001",
            "pbrMetallicRoughness" : {
                "baseColorFactor" : [
                    0.08078210055828094,
                    0.08078210055828094,
                    0.08078210055828094,
                    1
                ]
            }
        },
        {
            "doubleSided" : true,
            "name" : "text.002",
            "pbrMetallicRoughness" : {
                "baseColorFactor" : [
                    0.05990104377269745,
                    0.05990104377269745,
                    0.05990104377269745,
                    1
                ],
                "metallicFactor" : 0,
                "roughnessFactor" : 0.5
            }
        }
    ],
    "meshes" : [
        {
            "name" : "Plane.001",
            "primitives" : [
                {
                    "attributes" : {
                        "POSITION" : 0,
                        "NORMAL" : 1,
                        "TEXCOORD_0" : 2
                    },
                    "indices" : 3,
                    "material" : 0
                }
            ]
        },
        {
            "name" : "Sphere.003",
            "primitives" : [
                {
                    "attributes" : {
                        "POSITION" : 4,
                        "NORMAL" : 5,
                        "TEXCOORD_0" : 6
                    },
                    "indices" : 7,
                    "material" : 0
                }
            ]
        },
        {
            "name" : "Plane.002",
            "primitives" : [
                {
                    "attributes" : {
                        "POSITION" : 8,
                        "NORMAL" : 9,
                        "TEXCOORD_0" : 10
                    },
                    "indices" : 11,
                    "material" : 1
                }
            ]
        },
        {
            "name" : "Cube.003",
            "primitives" : [
                {
                    "attributes" : {
                        "POSITION" : 12,
                        "NORMAL" : 13,
                        "TEXCOORD_0" : 14
                    },
                    "indices" : 15,
                    "material" : 1
                }
            ]
        },
        {
            "name" : "Plane.006",
            "primitives" : [
                {
                    "attributes" : {
                        "POSITION" : 16,
                        "NORMAL" : 17,
                        "TEXCOORD_0" : 18
                    },
                    "indices" : 3,
                    "material" : 2
                }
            ]
        },
        {
            "name" : "Text",
            "primitives" : [
                {
                    "attributes" : {
                        "POSITION" : 19,
                        "NORMAL" : 20,
                        "TEXCOORD_0" : 21
                    },
                    "indices" : 22,
                    "material" : 3
                }
            ]
        },
        {
            "name" : "Plane.003",
            "primitives" : [
                {
                    "attributes" : {
                        "POSITION" : 23,
                        "NORMAL" : 24,
                        "TEXCOORD_0" : 25
                    },
                    "indices" : 3,
                    "material" : 2
                }
            ]
        },
        {
            "name" : "Text.001",
            "primitives" : [
                {
                    "attributes" : {
                        "POSITION" : 26,
                        "NORMAL" : 27,
                        "TEXCOORD_0" : 28
                    },
                    "indices" : 29,
                    "material" : 3
                }
            ]
        }
    ],
    "textures" : [
        {
            "sampler" : 0,
            "source" : 0
        },
        {
            "sampler" : 0,
            "source" : 1
        },
        {
            "sampler" : 0,
            "source" : 1
        }
    ],
    "images" : [
        {
            "bufferView" : 4,
            "mimeType" : "image/jpeg",
            "name" : "sky"
        },
        {
            "bufferView" : 13,
            "mimeType" : "image/png",
            "name" : "gradient2"
        }
    ],
    "accessors" : [
        {
            "bufferView" : 0,
            "componentType" : 5126,
            "count" : 4,
            "max" : [
                1,
                0,
                1
            ],
            "min" : [
                -1,
                0,
                -1
            ],
            "type" : "VEC3"
        },
        {
            "bufferView" : 1,
            "componentType" : 5126,
            "count" : 4,
            "type" : "VEC3"
        },
        {
            "bufferView" : 2,
            "componentType" : 5126,
            "count" : 4,
            "type" : "VEC2"
        },
        {
            "bufferView" : 3,
            "componentType" : 5123,
            "count" : 6,
            "type" : "SCALAR"
        },
        {
            "bufferView" : 5,
            "componentType" : 5126,
            "count" : 2868,
            "max" : [
                0.9999997019767761,
                1,
                0.9999993443489075
            ],
            "min" : [
                -0.9999990463256836,
                -1,
                -1
            ],
            "type" : "VEC3"
        },
        {
            "bufferView" : 6,
            "componentType" : 5126,
            "count" : 2868,
            "type" : "VEC3"
        },
        {
            "bufferView" : 7,
            "componentType" : 5126,
            "count" : 2868,
            "type" : "VEC2"
        },
        {
            "bufferView" : 8,
            "componentType" : 5123,
            "count" : 2880,
            "type" : "SCALAR"
        },
        {
            "bufferView" : 9,
            "componentType" : 5126,
            "count" : 78,
            "max" : [
                1.8492696285247803,
                -0.04797670245170593,
                1.8492696285247803
            ],
            "min" : [
                -1.8492696285247803,
                -0.16376462578773499,
                -1.8492696285247803
            ],
            "type" : "VEC3"
        },
        {
            "bufferView" : 10,
            "componentType" : 5126,
            "count" : 78,
            "type" : "VEC3"
        },
        {
            "bufferView" : 11,
            "componentType" : 5126,
            "count" : 78,
            "type" : "VEC2"
        },
        {
            "bufferView" : 12,
            "componentType" : 5123,
            "count" : 126,
            "type" : "SCALAR"
        },
        {
            "bufferView" : 14,
            "componentType" : 5126,
            "count" : 78,
            "max" : [
                1.0270317792892456,
                27.961088180541992,
                4.080458641052246
            ],
            "min" : [
                -1.0613815784454346,
                -0.019148916006088257,
                -2.181894302368164
            ],
            "type" : "VEC3"
        },
        {
            "bufferView" : 15,
            "componentType" : 5126,
            "count" : 78,
            "type" : "VEC3"
        },
        {
            "bufferView" : 16,
            "componentType" : 5126,
            "count" : 78,
            "type" : "VEC2"
        },
        {
            "bufferView" : 17,
            "componentType" : 5123,
            "count" : 102,
            "type" : "SCALAR"
        },
        {
            "bufferView" : 18,
            "componentType" : 5126,
            "count" : 4,
            "max" : [
                1,
                0,
                1
            ],
            "min" : [
                -1,
                0,
                -1
            ],
            "type" : "VEC3"
        },
        {
            "bufferView" : 19,
            "componentType" : 5126,
            "count" : 4,
            "type" : "VEC3"
        },
        {
            "bufferView" : 20,
            "componentType" : 5126,
            "count" : 4,
            "type" : "VEC2"
        },
        {
            "bufferView" : 21,
            "componentType" : 5126,
            "count" : 9875,
            "max" : [
                12.386000633239746,
                0,
                4.008999824523926
            ],
            "min" : [
                0.026000000536441803,
                0,
                -0.6910000443458557
            ],
            "type" : "VEC3"
        },
        {
            "bufferView" : 22,
            "componentType" : 5126,
            "count" : 9875,
            "type" : "VEC3"
        },
        {
            "bufferView" : 23,
            "componentType" : 5126,
            "count" : 9875,
            "type" : "VEC2"
        },
        {
            "bufferView" : 24,
            "componentType" : 5123,
            "count" : 21600,
            "type" : "SCALAR"
        },
        {
            "bufferView" : 25,
            "componentType" : 5126,
            "count" : 4,
            "max" : [
                1,
                0,
                1
            ],
            "min" : [
                -1,
                0,
                -1
            ],
            "type" : "VEC3"
        },
        {
            "bufferView" : 26,
            "componentType" : 5126,
            "count" : 4,
            "type" : "VEC3"
        },
        {
            "bufferView" : 27,
            "componentType" : 5126,
            "count" : 4,
            "type" : "VEC2"
        },
        {
            "bufferView" : 28,
            "componentType" : 5126,
            "count" : 6701,
            "max" : [
                10.432001113891602,
                0,
                4.008999824523926
            ],
            "min" : [
                0,
                0,
                -0.6820000410079956
            ],
            "type" : "VEC3"
        },
        {
            "bufferView" : 29,
            "componentType" : 5126,
            "count" : 6701,
            "type" : "VEC3"
        },
        {
            "bufferView" : 30,
            "componentType" : 5126,
            "count" : 6701,
            "type" : "VEC2"
        },
        {
            "bufferView" : 31,
            "componentType" : 5123,
            "count" : 14772,
            "type" : "SCALAR"
        }
    ],
    "bufferViews" : [
        {
            "buffer" : 0,
            "byteLength" : 48,
            "byteOffset" : 0,
            "target" : 34962
        },
        {
            "buffer" : 0,
            "byteLength" : 48,
            "byteOffset" : 48,
            "target" : 34962
        },
        {
            "buffer" : 0,
            "byteLength" : 32,
            "byteOffset" : 96,
            "target" : 34962
        },
        {
            "buffer" : 0,
            "byteLength" : 12,
            "byteOffset" : 128,
            "target" : 34963
        },
        {
            "buffer" : 0,
            "byteLength" : 884405,
            "byteOffset" : 140
        },
        {
            "buffer" : 0,
            "byteLength" : 34416,
            "byteOffset" : 884548,
            "target" : 34962
        },
        {
            "buffer" : 0,
            "byteLength" : 34416,
            "byteOffset" : 918964,
            "target" : 34962
        },
        {
            "buffer" : 0,
            "byteLength" : 22944,
            "byteOffset" : 953380,
            "target" : 34962
        },
        {
            "buffer" : 0,
            "byteLength" : 5760,
            "byteOffset" : 976324,
            "target" : 34963
        },
        {
            "buffer" : 0,
            "byteLength" : 936,
            "byteOffset" : 982084,
            "target" : 34962
        },
        {
            "buffer" : 0,
            "byteLength" : 936,
            "byteOffset" : 983020,
            "target" : 34962
        },
        {
            "buffer" : 0,
            "byteLength" : 624,
            "byteOffset" : 983956,
            "target" : 34962
        },
        {
            "buffer" : 0,
            "byteLength" : 252,
            "byteOffset" : 984580,
            "target" : 34963
        },
        {
            "buffer" : 0,
            "byteLength" : 1978,
            "byteOffset" : 984832
        },
        {
            "buffer" : 0,
            "byteLength" : 936,
            "byteOffset" : 986812,
            "target" : 34962
        },
        {
            "buffer" : 0,
            "byteLength" : 936,
            "byteOffset" : 987748,
            "target" : 34962
        },
        {
            "buffer" : 0,
            "byteLength" : 624,
            "byteOffset" : 988684,
            "target" : 34962
        },
        {
            "buffer" : 0,
            "byteLength" : 204,
            "byteOffset" : 989308,
            "target" : 34963
        },
        {
            "buffer" : 0,
            "byteLength" : 48,
            "byteOffset" : 989512,
            "target" : 34962
        },
        {
            "buffer" : 0,
            "byteLength" : 48,
            "byteOffset" : 989560,
            "target" : 34962
        },
        {
            "buffer" : 0,
            "byteLength" : 32,
            "byteOffset" : 989608,
            "target" : 34962
        },
        {
            "buffer" : 0,
            "byteLength" : 118500,
            "byteOffset" : 989640,
            "target" : 34962
        },
        {
            "buffer" : 0,
            "byteLength" : 118500,
            "byteOffset" : 1108140,
            "target" : 34962
        },
        {
            "buffer" : 0,
            "byteLength" : 79000,
            "byteOffset" : 1226640,
            "target" : 34962
        },
        {
            "buffer" : 0,
            "byteLength" : 43200,
            "byteOffset" : 1305640,
            "target" : 34963
        },
        {
            "buffer" : 0,
            "byteLength" : 48,
            "byteOffset" : 1348840,
            "target" : 34962
        },
        {
            "buffer" : 0,
            "byteLength" : 48,
            "byteOffset" : 1348888,
            "target" : 34962
        },
        {
            "buffer" : 0,
            "byteLength" : 32,
            "byteOffset" : 1348936,
            "target" : 34962
        },
        {
            "buffer" : 0,
            "byteLength" : 80412,
            "byteOffset" : 1348968,
            "target" : 34962
        },
        {
            "buffer" : 0,
            "byteLength" : 80412,
            "byteOffset" : 1429380,
            "target" : 34962
        },
        {
            "buffer" : 0,
            "byteLength" : 53608,
            "byteOffset" : 1509792,
            "target" : 34962
        },
        {
            "buffer" : 0,
            "byteLength" : 29544,
            "byteOffset" : 1563400,
            "target" : 34963
        }
    ],
    "samplers" : [
        {
            "magFilter" : 9729,
            "minFilter" : 9987
        }
    ],
    "buffers" : [
        {
            "byteLength" : 1592944,
            "uri" : "data:application/octet-stream;base64,"
        }
    ]
}
